# xmcd
#
# Track frame offsets:
#	150
#	20024
#	40343
#	63955
#	94800
#	114046
#	134723
#	158160
#	184516
#	212347
#
# Disc length: 3133 seconds
#
# Revision: 3
# Processed by: cddbd v1.5.2PL0 Copyright (c) Steve Scherf et al.
# Submitted via: EZCDAudioConverter 8.0.2.1
#
DISCID=7f0c3b0a
DTITLE=Trường Vũ - Thương Về Miền Trung
DYEAR=2000
DGENRE=blues
TTITLE0=Thương Về Miền Trung
TTITLE1=Mùa xuân trong thư em
TTITLE2=Tám nẻo đường tình
TTITLE3=Quán vắng biên thùy
TTITLE4=Đừng trách anh tội nghiệp
TTITLE5=Chuyện ba mùa mưa
TTITLE6=Hạ buồn
TTITLE7=Tâm sự đời tôi
TTITLE8=Tâm sự Huyền Trân
TTITLE9=Trước giờ tạm biệt
EXTD=
EXTT0=
EXTT1=
EXTT2=
EXTT3=
EXTT4=
EXTT5=
EXTT6=
EXTT7=
EXTT8=
EXTT9=
PLAYORDER=
